<?xml version="1.0" encoding="UTF-8" standalone="no"?>
<!-- Created with Inkscape (http://www.inkscape.org/) -->

<svg
   width="20mm"
   height="20mm"
   viewBox="0 0 41.287006 48.132222"
   version="1.1"
   id="svg1"
   xml:space="preserve"
   sodipodi:docname="logo.svg"
   inkscape:export-filename="logo.svg"
   inkscape:export-xdpi="27.684254"
   inkscape:export-ydpi="27.684254"
   xmlns:inkscape="http://www.inkscape.org/namespaces/inkscape"
   xmlns:sodipodi="http://sodipodi.sourceforge.net/DTD/sodipodi-0.dtd"
   xmlns:xlink="http://www.w3.org/1999/xlink"
   xmlns="http://www.w3.org/2000/svg"
   xmlns:svg="http://www.w3.org/2000/svg"><sodipodi:namedview
     id="namedview1"
     pagecolor="#ffffff"
     bordercolor="#000000"
     borderopacity="0.25"
     inkscape:showpageshadow="2"
     inkscape:pageopacity="0.0"
     inkscape:pagecheckerboard="true"
     inkscape:deskcolor="#d1d1d1"
     inkscape:document-units="mm" /><defs
     id="defs1"><path
       id="SVGID_1_"
       d="m 2554.599,1533.681 96.918,-563.466 c -105.559,132.322 -282.573,434.202 -162.323,724.494 33.785,-96.374 65.405,-161.028 65.405,-161.028" /><path
       id="SVGID_00000096044030401384315880000011445674359647168914_"
       d="M 2460.144,1760.835 2275.791,1219.63 c -28.853,163.456 -40.043,502.938 190.009,702.217 2.191,-11.539 4.535,-22.993 7.005,-34.337 -10.438,-75.954 -12.661,-126.675 -12.661,-126.675" /><path
       id="SVGID_00000168116768427491459230000009110395612571913111_"
       d="m 2426.693,1932.44 -359.434,-444.63 c 27.811,155.652 125.672,455.754 380.909,577.107 1.164,-24.023 3.355,-48.142 6.374,-72.131 -18.201,-37.226 -27.849,-60.346 -27.849,-60.346" /><path
       id="SVGID_00000021080312846686924220000013571553239507778700_"
       d="m 2413.559,2067.991 -484.783,-303.107 c 74.718,133.893 255.997,374.741 523.021,417.909 -3.15,-25.941 -4.582,-52.473 -4.582,-79.277 -21.623,-22.013 -33.656,-35.525 -33.656,-35.525" /><path
       id="SVGID_00000094603256919996952510000015341645552030207395_"
       d="m 2454.671,2203.31 -456.237,-112.008 c 89.046,81.925 274.749,212.824 482.009,208.102 -9.627,-24.261 -16.91,-49.703 -22.165,-75.967 -1.333,-6.657 -2.53,-13.369 -3.607,-20.127" /><path
       id="SVGID_00000102543321781755262690000005178792821139117715_"
       d="m 2485.9,2312.449 -340.562,42.309 c 86.644,34.549 243.664,76.484 395.851,45.217 -23.176,-26.414 -41.354,-55.87 -55.289,-87.526" /><path
       id="SVGID_00000101784219306500039640000003388302995247211445_"
       d="m 2529.516,2194.96 c -53.563,-108.833 -72.646,-305.657 25.083,-661.279 0,0 -71.533,146.24 -114.374,326.738 -27.585,116.218 -43.276,246.64 -20.318,361.37 21.095,105.418 74.819,197.589 181.924,253.325 8.109,-8.322 15.763,-16.637 22.988,-24.811 31.418,-35.538 81.916,-100.255 107.691,-121.457 0,0 -131.884,10.603 -202.994,-133.886" /><path
       id="SVGID_00000003794353093682259510000006850919576404617875_"
       d="m 1801.627,3029.043 -451.148,431.918 c 178.666,-47.645 530.232,-197.789 613.192,-530.858 -92.275,62.696 -162.044,98.94 -162.044,98.94" /><path
       id="SVGID_00000111888161498670816310000012774190089358414764_"
       d="m 1939.744,3022.198 -185.115,503.731 c 119.909,-104.24 334.566,-352.884 272.826,-641.287 -47.546,83.235 -87.711,137.556 -87.711,137.556" /><path
       id="SVGID_00000081625207031353265430000001495728403279071367_"
       d="m 2045.845,2937.279 26.307,467.851 c 59.949,-125.108 145.759,-398.785 -3.711,-608.494 -9.243,83.187 -22.596,140.643 -22.596,140.643" /><path
       id="SVGID_00000074408543468896746530000008980683780097938056_"
       d="m 2247.44,2293.019 c -223.463,280.585 -434.199,655.134 -505.433,795.245 l 423.774,-75.043 c 411.059,-97.627 516.419,-357.136 547.732,-562.047 2.77,-18.128 4.96,-35.828 6.732,-52.951 7.704,-74.459 13.11,-203.887 26.73,-254.762 7.938,-29.648 25.605,-53.199 59.698,-61.146 24.788,-5.777 54.256,-3.525 75.327,2.796 -28.693,-49.661 -92.7,-72.836 -92.7,-72.836 -16.948,-34.415 -49.385,-48.907 -76.926,-54.863 -98.015,-21.195 -221.979,65.531 -348.872,200.546 -38.632,41.106 -77.537,86.686 -116.062,135.061" /><filter
       id="Adobe_OpacityMaskFilter"
       filterUnits="userSpaceOnUse"
       x="1742.007"
       y="2451.1741"
       width="971.50598"
       height="637.09003">&#10;			<feColorMatrix
   type="matrix"
   values="1 0 0 0 0  0 1 0 0 0  0 0 1 0 0  0 0 0 1 0"
   id="feColorMatrix22" />&#10;		</filter><path
       id="SVGID_00000008832593995917595420000011355418167780894142_"
       d="M 1788.627,1286.122 1395.754,473.889 c -14.018,266.753 35.9,816.745 456.748,1078.968 -45.107,-154.719 -63.875,-266.735 -63.875,-266.735" /><path
       id="SVGID_00000104688750861587202120000005013432068982002876_"
       d="m 1875.919,1664.406 -733.471,-525.444 c 113.021,236.297 410.31,682.325 888.546,726.923 -7.78,-16.823 -15.286,-33.677 -22.53,-50.505 -83.127,-87.91 -132.545,-150.974 -132.545,-150.974" /><path
       id="SVGID_00000121268143153602688250000000007111158114989982_"
       d="m 1990.52,1915.385 -869.546,-240.753 c 178.59,174.261 579.704,469.63 1018.728,391.083 -20.559,-31.904 -39.886,-64.874 -58.036,-98.439 -57.536,-31.072 -91.146,-51.891 -91.146,-51.891" /><path
       id="SVGID_00000038390048714130890820000011227825020119642007_"
       d="m 2098.1,2101.435 -900.521,55.977 c 218.825,103.271 672.617,246.002 1054.994,56.277 -27.858,-30.406 -54.053,-63.146 -78.658,-97.552 -47.966,-8.404 -75.815,-14.702 -75.815,-14.702" /><path
       id="SVGID_00000096769120754587767750000011692842618518391936_"
       d="m 2275.097,2237.386 -688.448,275.066 c 189.508,23.41 548.044,20.95 809.745,-175.379 -34.63,-22.303 -67.333,-48.274 -98.19,-77.162 -7.821,-7.322 -15.519,-14.84 -23.107,-22.525" /><path
       id="SVGID_00000003800644862816288050000007227272387567180680_"
       d="m 2415.377,2348.807 -398.303,366.952 c 142.934,-35.195 382.978,-125.516 549.62,-305.362 -53.999,-12.628 -104.371,-33.75 -151.317,-61.59" /><path
       id="SVGID_00000028308578925112503650000014086225703360668821_"
       d="m 2363.502,2157.958 c -168.664,-90.525 -373.847,-325.648 -574.875,-871.837 0,0 42.434,253.381 153.144,524.394 71.285,174.5 170.874,356.311 305.669,482.502 123.853,115.948 277.426,184.939 466.073,158.156 2.77,-18.128 4.96,-35.828 6.732,-52.951 7.704,-74.459 13.11,-203.887 26.73,-254.762 -10e-4,0 -159.552,134.681 -383.473,14.498" /><filter
       id="Adobe_OpacityMaskFilter_00000150824743313838959440000010499574274507981456_"
       filterUnits="userSpaceOnUse"
       x="2363.502"
       y="1954.231"
       width="425.798"
       height="203.72701">&#10;			<feColorMatrix
   type="matrix"
   values="1 0 0 0 0  0 1 0 0 0  0 0 1 0 0  0 0 0 1 0"
   id="feColorMatrix38" />&#10;		</filter></defs><g
     inkscape:label="Layer 1"
     inkscape:groupmode="layer"
     id="layer1"
     transform="translate(-76.529769,-98.165751)"><g
       id="g70"
       transform="matrix(0.01912286,5.4533042e-5,-7.6697094e-5,0.01359672,57.333443,92.503541)"
       inkscape:transform-center-x="20.507322"
       inkscape:transform-center-y="-0.13209799"><rect
         x="1013.8256"
         y="410.11597"
         style="fill:none;stroke:#000000;stroke-width:0.688213;stroke-miterlimit:10"
         width="2149.7566"
         height="3525.1384"
         id="rect1"
         transform="matrix(0.99999671,0.00256607,0.00156488,0.99999878,0,0)" /><g
         id="g41">&#10;	<path
   style="clip-rule:evenodd;fill:#003780;fill-rule:evenodd"
   d="m 2554.599,1533.681 96.918,-563.466 c 0,0 -494.094,379.949 -211.292,890.204 42.841,-180.498 114.374,-326.738 114.374,-326.738"
   id="path1" />&#10;	<g
   id="g2">&#10;		<defs
   id="defs1-8" />&#10;		<clipPath
   id="SVGID_00000069371376698176024660000012772770853310598052_">&#10;			<use
   xlink:href="#SVGID_1_"
   style="overflow:visible"
   id="use1" />&#10;		</clipPath>&#10;		&#10;			<linearGradient
   id="SVGID_00000160191750570516240330000008503171432254889884_"
   gradientUnits="userSpaceOnUse"
   x1="2609.8523"
   y1="987.90503"
   x2="2459.0447"
   y2="1509.4948">&#10;			<stop
   offset="0"
   style="stop-color:#FFCE4B"
   id="stop1" />&#10;			<stop
   offset="1"
   style="stop-color:#F452CB"
   id="stop2" />&#10;		</linearGradient>&#10;		&#10;			<rect
   x="2368.9441"
   y="970.21399"
   style="fill:url(#SVGID_00000160191750570516240330000008503171432254889884_)"
   width="282.573"
   height="724.49402"
   clip-path="url(#SVGID_00000069371376698176024660000012772770853310598052_)"
   id="rect2" />&#10;	</g>&#10;	<path
   style="clip-rule:evenodd;fill:#003780;fill-rule:evenodd"
   d="M 2460.144,1760.835 2275.791,1219.63 c 0,0 -227.991,515.336 172.938,834.963 3.405,-56.303 12.289,-112.953 24.075,-167.077 -10.438,-75.956 -12.66,-126.681 -12.66,-126.681"
   id="path2" />&#10;	<g
   id="g4">&#10;		<defs
   id="defs2" />&#10;		<clipPath
   id="SVGID_00000155862185758124893820000002123093494022239149_">&#10;			<use
   xlink:href="#SVGID_00000096044030401384315880000011445674359647168914_"
   style="overflow:visible"
   id="use2" />&#10;		</clipPath>&#10;		&#10;			<linearGradient
   id="SVGID_00000039125393966477816340000005886066166373091755_"
   gradientUnits="userSpaceOnUse"
   x1="2276.5381"
   y1="1304.9485"
   x2="2419.3416"
   y2="1793.1938">&#10;			<stop
   offset="0"
   style="stop-color:#F452CB"
   id="stop3" />&#10;			<stop
   offset="1"
   style="stop-color:#0928D8"
   id="stop4" />&#10;		</linearGradient>&#10;		&#10;			<rect
   x="2235.748"
   y="1219.63"
   style="fill:url(#SVGID_00000039125393966477816340000005886066166373091755_)"
   width="237.05701"
   height="702.21698"
   clip-path="url(#SVGID_00000155862185758124893820000002123093494022239149_)"
   id="rect4" />&#10;	</g>&#10;	<path
   style="clip-rule:evenodd;fill:#003780;fill-rule:evenodd"
   d="m 2426.693,1932.44 -359.434,-444.63 c 0,0 -33.305,511.087 385.061,699.182 -8.08,-62.676 -5.993,-128.914 2.221,-194.203 -18.2,-37.227 -27.848,-60.349 -27.848,-60.349"
   id="path4" />&#10;	<g
   id="g6">&#10;		<defs
   id="defs4" />&#10;		<clipPath
   id="SVGID_00000098220221055975709670000000808825759559674246_">&#10;			<use
   xlink:href="#SVGID_00000168116768427491459230000009110395612571913111_"
   style="overflow:visible"
   id="use4" />&#10;		</clipPath>&#10;		&#10;			<linearGradient
   id="SVGID_00000034791952252411048070000014680792911528137653_"
   gradientUnits="userSpaceOnUse"
   x1="2054.7664"
   y1="1575.2727"
   x2="2468.2876"
   y2="1978.6748">&#10;			<stop
   offset="0"
   style="stop-color:#4EEB90"
   id="stop5" />&#10;			<stop
   offset="1"
   style="stop-color:#00478F"
   id="stop6" />&#10;		</linearGradient>&#10;		&#10;			<rect
   x="2067.26"
   y="1487.8101"
   style="fill:url(#SVGID_00000034791952252411048070000014680792911528137653_)"
   width="387.28299"
   height="577.10699"
   clip-path="url(#SVGID_00000098220221055975709670000000808825759559674246_)"
   id="rect6" />&#10;	</g>&#10;	<path
   style="clip-rule:evenodd;fill:#003780;fill-rule:evenodd"
   d="m 2413.559,2067.991 -484.783,-303.107 c 0,0 126.866,463.4 549.95,530.121 -8.782,-22.931 -15.51,-46.886 -20.448,-71.567 -7.721,-38.577 -11.065,-78.93 -11.062,-119.919 -21.619,-22.009 -33.657,-35.528 -33.657,-35.528"
   id="path6" />&#10;	<g
   id="g8">&#10;		<defs
   id="defs6" />&#10;		<clipPath
   id="SVGID_00000181076470767850718430000009175482584874295193_">&#10;			<use
   xlink:href="#SVGID_00000021080312846686924220000013571553239507778700_"
   style="overflow:visible"
   id="use6" />&#10;		</clipPath>&#10;		&#10;			<linearGradient
   id="SVGID_00000053526402429555437940000012165308733538880417_"
   gradientUnits="userSpaceOnUse"
   x1="2452.8623"
   y1="2159.4128"
   x2="1964.0425"
   y2="1813.9417">&#10;			<stop
   offset="0"
   style="stop-color:#008A80"
   id="stop7" />&#10;			<stop
   offset="1"
   style="stop-color:#AFF022"
   id="stop8" />&#10;		</linearGradient>&#10;		&#10;			<rect
   x="1928.776"
   y="1764.884"
   style="fill:url(#SVGID_00000053526402429555437940000012165308733538880417_)"
   width="523.021"
   height="417.909"
   clip-path="url(#SVGID_00000181076470767850718430000009175482584874295193_)"
   id="rect8" />&#10;	</g>&#10;	<path
   style="clip-rule:evenodd;fill:#003780;fill-rule:evenodd"
   d="m 2454.671,2203.31 -456.237,-112.008 c 0,0 202.784,305.968 530.843,294.264 -36.641,-46.989 -59.055,-102.433 -70.999,-162.129 -1.333,-6.657 -2.53,-13.369 -3.607,-20.127"
   id="path8" />&#10;	<g
   id="g10">&#10;		<defs
   id="defs8" />&#10;		<clipPath
   id="SVGID_00000004533403614803010990000005035488375101662893_">&#10;			<use
   xlink:href="#SVGID_00000094603256919996952510000015341645552030207395_"
   style="overflow:visible"
   id="use8" />&#10;		</clipPath>&#10;		&#10;			<linearGradient
   id="SVGID_00000064336181786811172130000003685182379695584945_"
   gradientUnits="userSpaceOnUse"
   x1="2487.7217"
   y1="2326.6277"
   x2="1972.2046"
   y2="2058.9624">&#10;			<stop
   offset="0"
   style="stop-color:#0286CF"
   id="stop9" />&#10;			<stop
   offset="1"
   style="stop-color:#51F4E9"
   id="stop10" />&#10;		</linearGradient>&#10;		&#10;			<rect
   x="1998.434"
   y="2091.302"
   style="fill:url(#SVGID_00000064336181786811172130000003685182379695584945_)"
   width="482.009"
   height="212.825"
   clip-path="url(#SVGID_00000004533403614803010990000005035488375101662893_)"
   id="rect10" />&#10;	</g>&#10;	<path
   style="clip-rule:evenodd;fill:#003780;fill-rule:evenodd"
   d="m 2485.9,2312.449 -340.562,42.309 c 0,0 219.863,157.327 464.344,104.224 -58.554,-38.04 -98.28,-88.6 -123.782,-146.533"
   id="path10" />&#10;	<g
   id="g12">&#10;		<defs
   id="defs10" />&#10;		<clipPath
   id="SVGID_00000071561190597162839390000017671686902988302465_">&#10;			<use
   xlink:href="#SVGID_00000102543321781755262690000005178792821139117715_"
   style="overflow:visible"
   id="use10" />&#10;		</clipPath>&#10;		&#10;			<linearGradient
   id="SVGID_00000010300164772224105320000001177302796227245186_"
   gradientUnits="userSpaceOnUse"
   x1="2636.6404"
   y1="2405.6077"
   x2="2111.4548"
   y2="2345.1694">&#10;			<stop
   offset="0"
   style="stop-color:#0286CF"
   id="stop11" />&#10;			<stop
   offset="1"
   style="stop-color:#51F4E9"
   id="stop12" />&#10;		</linearGradient>&#10;		&#10;			<rect
   x="2145.3379"
   y="2312.449"
   style="fill:url(#SVGID_00000010300164772224105320000001177302796227245186_)"
   width="395.85101"
   height="118.793"
   clip-path="url(#SVGID_00000071561190597162839390000017671686902988302465_)"
   id="rect12" />&#10;	</g>&#10;	<g
   id="g14">&#10;		<defs
   id="defs12" />&#10;		<clipPath
   id="SVGID_00000033370228893856457840000009809638093998223491_">&#10;			<use
   xlink:href="#SVGID_00000101784219306500039640000003388302995247211445_"
   style="overflow:visible"
   id="use12" />&#10;		</clipPath>&#10;		&#10;			<linearGradient
   id="SVGID_00000050662844829173181090000008264418931710198461_"
   gradientUnits="userSpaceOnUse"
   x1="2500.7285"
   y1="2446.5181"
   x2="2611.0024"
   y2="1684.7471">&#10;			<stop
   offset="0"
   style="stop-color:#0012AF"
   id="stop13" />&#10;			<stop
   offset="1"
   style="stop-color:#DA34C4"
   id="stop14" />&#10;		</linearGradient>&#10;		&#10;			<rect
   x="2396.95"
   y="1533.681"
   style="fill:url(#SVGID_00000050662844829173181090000008264418931710198461_)"
   width="335.561"
   height="941.43298"
   clip-path="url(#SVGID_00000033370228893856457840000009809638093998223491_)"
   id="rect14" />&#10;	</g>&#10;	<path
   style="clip-rule:evenodd;fill:#003780;fill-rule:evenodd"
   d="m 1801.627,3029.043 -451.148,431.918 c 0,0 680.762,-12.737 763.846,-644.586 -154.877,130.696 -312.698,212.668 -312.698,212.668"
   id="path14" />&#10;	<g
   id="g16">&#10;		<defs
   id="defs14" />&#10;		<clipPath
   id="SVGID_00000024715736789319301610000017954140939611034271_">&#10;			<use
   xlink:href="#SVGID_00000003794353093682259510000006850919576404617875_"
   style="overflow:visible"
   id="use14" />&#10;		</clipPath>&#10;		&#10;			<linearGradient
   id="SVGID_00000156559983566524525030000012085572315730143671_"
   gradientUnits="userSpaceOnUse"
   x1="1903.5455"
   y1="3052.6367"
   x2="1270.8353"
   y2="3419.4619">&#10;			<stop
   offset="0"
   style="stop-color:#0286CF"
   id="stop15" />&#10;			<stop
   offset="1"
   style="stop-color:#51F4E9"
   id="stop16" />&#10;		</linearGradient>&#10;		&#10;			<rect
   x="1350.479"
   y="2930.103"
   style="fill:url(#SVGID_00000156559983566524525030000012085572315730143671_)"
   width="613.19202"
   height="530.85901"
   clip-path="url(#SVGID_00000024715736789319301610000017954140939611034271_)"
   id="rect16" />&#10;	</g>&#10;	<path
   style="clip-rule:evenodd;fill:#003780;fill-rule:evenodd"
   d="m 1939.744,3022.198 -185.115,503.731 c 0,0 520.628,-266.896 346.161,-785.956 -70.187,159.36 -161.046,282.225 -161.046,282.225"
   id="path16" />&#10;	<g
   id="g18">&#10;		<defs
   id="defs16" />&#10;		<clipPath
   id="SVGID_00000154402788446211801640000002327885701074718358_">&#10;			<use
   xlink:href="#SVGID_00000111888161498670816310000012774190089358414764_"
   style="overflow:visible"
   id="use16" />&#10;		</clipPath>&#10;		&#10;			<linearGradient
   id="SVGID_00000008132898588390168450000013470551731286427830_"
   gradientUnits="userSpaceOnUse"
   x1="2048.6128"
   y1="3016.2085"
   x2="1698.7919"
   y2="3538.252">&#10;			<stop
   offset="0"
   style="stop-color:#0286CF"
   id="stop17" />&#10;			<stop
   offset="1"
   style="stop-color:#51F4E9"
   id="stop18" />&#10;		</linearGradient>&#10;		&#10;			<rect
   x="1754.629"
   y="2884.6421"
   style="fill:url(#SVGID_00000008132898588390168450000013470551731286427830_)"
   width="334.56601"
   height="641.28699"
   clip-path="url(#SVGID_00000154402788446211801640000002327885701074718358_)"
   id="rect18" />&#10;	</g>&#10;	<path
   style="clip-rule:evenodd;fill:#003780;fill-rule:evenodd"
   d="m 2045.845,2937.279 26.307,467.851 c 0,0 324.674,-394.388 4.899,-749.851 -0.994,152.039 -31.206,282 -31.206,282"
   id="path18" />&#10;	<g
   id="g20">&#10;		<defs
   id="defs18" />&#10;		<clipPath
   id="SVGID_00000074416603656823866320000007776051719501054360_">&#10;			<use
   xlink:href="#SVGID_00000081625207031353265430000001495728403279071367_"
   style="overflow:visible"
   id="use18" />&#10;		</clipPath>&#10;		&#10;			<linearGradient
   id="SVGID_00000019641502976874073350000012944404806729194642_"
   gradientUnits="userSpaceOnUse"
   x1="2168.5552"
   y1="2901.6489"
   x2="2069.2151"
   y2="3441.2708">&#10;			<stop
   offset="0"
   style="stop-color:#0286CF"
   id="stop19" />&#10;			<stop
   offset="1"
   style="stop-color:#51F4E9"
   id="stop20" />&#10;		</linearGradient>&#10;		&#10;			<rect
   x="2045.845"
   y="2796.636"
   style="fill:url(#SVGID_00000019641502976874073350000012944404806729194642_)"
   width="172.06599"
   height="608.49402"
   clip-path="url(#SVGID_00000074416603656823866320000007776051719501054360_)"
   id="rect20" />&#10;	</g>&#10;	<g
   id="g22">&#10;		<defs
   id="defs20" />&#10;		<clipPath
   id="SVGID_00000087405493194242992120000005190922911614896273_">&#10;			<use
   xlink:href="#SVGID_00000074408543468896746530000008980683780097938056_"
   style="overflow:visible"
   id="use20" />&#10;		</clipPath>&#10;		&#10;			<linearGradient
   id="SVGID_00000087401007823360598300000001263322997516536454_"
   gradientUnits="userSpaceOnUse"
   x1="2466.7808"
   y1="2775.1648"
   x2="2047.9133"
   y2="2063.623">&#10;			<stop
   offset="0"
   style="stop-color:#0F0DB2"
   id="stop21" />&#10;			<stop
   offset="1"
   style="stop-color:#EC2FD3"
   id="stop22" />&#10;		</linearGradient>&#10;		&#10;			<rect
   x="1742.007"
   y="1936.217"
   style="fill:url(#SVGID_00000087401007823360598300000001263322997516536454_)"
   width="1139.993"
   height="1152.047"
   clip-path="url(#SVGID_00000087405493194242992120000005190922911614896273_)"
   id="rect22" />&#10;	</g>&#10;	<defs
   id="defs22" />&#10;	&#10;		<mask
   maskUnits="userSpaceOnUse"
   x="1742.007"
   y="2451.174"
   width="971.506"
   height="637.09"
   id="SVGID_00000075846671381123663960000017769632942871196065_">&#10;		<g
   style="filter:url(#Adobe_OpacityMaskFilter)"
   id="g24">&#10;			&#10;				<linearGradient
   id="SVGID_00000094605160529126675630000013091730187846143892_"
   gradientUnits="userSpaceOnUse"
   x1="-52.445999"
   y1="2665.6504"
   x2="9.3513002"
   y2="3208.5947"
   gradientTransform="translate(2232.9546,-311.0717)">&#10;				<stop
   offset="0"
   style="stop-color:#FFFFFF"
   id="stop23" />&#10;				<stop
   offset="1"
   style="stop-color:#000000"
   id="stop24" />&#10;			</linearGradient>&#10;			&#10;				<rect
   x="1742.007"
   y="2451.1741"
   style="fill:url(#SVGID_00000094605160529126675630000013091730187846143892_)"
   width="971.505"
   height="637.09003"
   id="rect24" />&#10;		</g>&#10;	</mask>&#10;	<path
   style="clip-rule:evenodd;fill-rule:evenodd"
   d="m 1919.531,2773.086 c -80.896,133.793 -144.346,249.919 -177.524,315.178 l 423.774,-75.043 c 411.059,-97.627 516.419,-357.136 547.732,-562.047 0,0 -218.304,378.65 -793.982,321.912"
   mask="url(#SVGID_00000075846671381123663960000017769632942871196065_)"
   id="path24" />&#10;	<path
   style="clip-rule:evenodd;fill:#003780;fill-rule:evenodd"
   d="M 1788.627,1286.122 1395.754,473.889 c 0,0 -285.41,941.287 546.017,1336.627 -110.71,-271.013 -153.144,-524.394 -153.144,-524.394"
   id="path25" />&#10;	<g
   id="g26">&#10;		<defs
   id="defs25" />&#10;		<clipPath
   id="SVGID_00000138531253570006156860000000776545326972054975_">&#10;			<use
   xlink:href="#SVGID_00000008832593995917595420000011355418167780894142_"
   style="overflow:visible"
   id="use25" />&#10;		</clipPath>&#10;		&#10;			<linearGradient
   id="SVGID_00000013190798270698283580000005149496943506817946_"
   gradientUnits="userSpaceOnUse"
   x1="1438.2053"
   y1="506.70779"
   x2="1723.5104"
   y2="1314.6602">&#10;			<stop
   offset="0"
   style="stop-color:#FFCE4B"
   id="stop25" />&#10;			<stop
   offset="1"
   style="stop-color:#F452CB"
   id="stop26" />&#10;		</linearGradient>&#10;		&#10;			<rect
   x="1381.736"
   y="473.88901"
   style="fill:url(#SVGID_00000013190798270698283580000005149496943506817946_)"
   width="470.76599"
   height="1078.968"
   clip-path="url(#SVGID_00000138531253570006156860000000776545326972054975_)"
   id="rect26" />&#10;	</g>&#10;	<path
   style="clip-rule:evenodd;fill:#003780;fill-rule:evenodd"
   d="m 1875.919,1664.406 -733.471,-525.444 c 0,0 180.445,870.78 988.498,912.989 -47.317,-75.397 -87.919,-156.268 -122.478,-236.561 -83.13,-87.915 -132.549,-150.984 -132.549,-150.984"
   id="path26" />&#10;	<g
   id="g28">&#10;		<defs
   id="defs26" />&#10;		<clipPath
   id="SVGID_00000065069258978872637820000009895630892946090167_">&#10;			<use
   xlink:href="#SVGID_00000104688750861587202120000005013432068982002876_"
   style="overflow:visible"
   id="use26" />&#10;		</clipPath>&#10;		&#10;			<linearGradient
   id="SVGID_00000173129252450318739380000004785282667226771349_"
   gradientUnits="userSpaceOnUse"
   x1="1237.167"
   y1="1228.1178"
   x2="1868.6981"
   y2="1723.7021">&#10;			<stop
   offset="0"
   style="stop-color:#F452CB"
   id="stop27" />&#10;			<stop
   offset="1"
   style="stop-color:#0928D8"
   id="stop28" />&#10;		</linearGradient>&#10;		&#10;			<rect
   x="1142.447"
   y="1138.962"
   style="fill:url(#SVGID_00000173129252450318739380000004785282667226771349_)"
   width="888.54602"
   height="726.92297"
   clip-path="url(#SVGID_00000065069258978872637820000009895630892946090167_)"
   id="rect28" />&#10;	</g>&#10;	<path
   style="clip-rule:evenodd;fill:#003780;fill-rule:evenodd"
   d="m 1990.52,1915.385 -869.546,-240.753 c 0,0 426.44,686.599 1136.128,543.965 -67.911,-73.031 -126.04,-159.969 -175.432,-251.314 -57.54,-31.076 -91.15,-51.898 -91.15,-51.898"
   id="path28" />&#10;	<g
   id="g30">&#10;		<defs
   id="defs28" />&#10;		<clipPath
   id="SVGID_00000163771160174993858640000016544045426020176531_">&#10;			<use
   xlink:href="#SVGID_00000121268143153602688250000000007111158114989982_"
   style="overflow:visible"
   id="use28" />&#10;		</clipPath>&#10;		&#10;			<linearGradient
   id="SVGID_00000137838947316357098810000010417729374248953236_"
   gradientUnits="userSpaceOnUse"
   x1="1178.8279"
   y1="1840.1957"
   x2="2079.9585"
   y2="1978.4083">&#10;			<stop
   offset="0"
   style="stop-color:#4EEB90"
   id="stop29" />&#10;			<stop
   offset="1"
   style="stop-color:#00478F"
   id="stop30" />&#10;		</linearGradient>&#10;		&#10;			<rect
   x="1120.974"
   y="1674.632"
   style="fill:url(#SVGID_00000137838947316357098810000010417729374248953236_)"
   width="1018.729"
   height="469.629"
   clip-path="url(#SVGID_00000163771160174993858640000016544045426020176531_)"
   id="rect30" />&#10;	</g>&#10;	<path
   style="clip-rule:evenodd;fill:#003780;fill-rule:evenodd"
   d="m 2098.1,2101.435 -900.521,55.977 c 0,0 588.256,478.349 1192.573,175.591 -32.324,-21.373 -62.951,-45.945 -91.948,-73.091 -45.323,-42.431 -86.661,-91.158 -124.287,-143.773 -47.953,-8.404 -75.817,-14.704 -75.817,-14.704"
   id="path30" />&#10;	<g
   id="g32">&#10;		<defs
   id="defs30" />&#10;		<clipPath
   id="SVGID_00000012440716236808732890000014595167170874752156_">&#10;			<use
   xlink:href="#SVGID_00000038390048714130890820000011227825020119642007_"
   style="overflow:visible"
   id="use30" />&#10;		</clipPath>&#10;		&#10;			<linearGradient
   id="SVGID_00000109721108245606714480000002827969006498779819_"
   gradientUnits="userSpaceOnUse"
   x1="2232.8655"
   y1="2249.5505"
   x2="1288.2701"
   y2="2254.897">&#10;			<stop
   offset="0"
   style="stop-color:#008A80"
   id="stop31" />&#10;			<stop
   offset="1"
   style="stop-color:#AFF022"
   id="stop32" />&#10;		</linearGradient>&#10;		&#10;			<rect
   x="1197.579"
   y="2101.4351"
   style="fill:url(#SVGID_00000109721108245606714480000002827969006498779819_)"
   width="1054.995"
   height="301.979"
   clip-path="url(#SVGID_00000012440716236808732890000014595167170874752156_)"
   id="rect32" />&#10;	</g>&#10;	<path
   style="clip-rule:evenodd;fill:#003780;fill-rule:evenodd"
   d="m 2275.097,2237.386 -688.448,275.066 c 0,0 541.178,206.574 951.527,-109.612 -90.168,-26.679 -169.837,-77.27 -239.972,-142.928 -7.821,-7.323 -15.519,-14.841 -23.107,-22.526"
   id="path32" />&#10;	<g
   id="g34">&#10;		<defs
   id="defs32" />&#10;		<clipPath
   id="SVGID_00000033335310203282149480000006822338296984094636_">&#10;			<use
   xlink:href="#SVGID_00000096769120754587767750000011692842618518391936_"
   style="overflow:visible"
   id="use32" />&#10;		</clipPath>&#10;		&#10;			<linearGradient
   id="SVGID_00000182488636301184463310000010783392540304502193_"
   gradientUnits="userSpaceOnUse"
   x1="2424.9094"
   y1="2324.7119"
   x2="1517.4669"
   y2="2454.3467">&#10;			<stop
   offset="0"
   style="stop-color:#0286CF"
   id="stop33" />&#10;			<stop
   offset="1"
   style="stop-color:#51F4E9"
   id="stop34" />&#10;		</linearGradient>&#10;		&#10;			<rect
   x="1586.65"
   y="2237.386"
   style="fill:url(#SVGID_00000182488636301184463310000010783392540304502193_)"
   width="809.745"
   height="298.47601"
   clip-path="url(#SVGID_00000033335310203282149480000006822338296984094636_)"
   id="rect34" />&#10;	</g>&#10;	<path
   style="clip-rule:evenodd;fill:#003780;fill-rule:evenodd"
   d="m 2415.377,2348.807 -398.303,366.952 c 0,0 426.645,0.103 691.707,-292.498 -110.081,4.925 -207.489,-23.504 -293.404,-74.454"
   id="path34" />&#10;	<g
   id="g36">&#10;		<defs
   id="defs34" />&#10;		<clipPath
   id="SVGID_00000167398304111187929400000005407654747722063540_">&#10;			<use
   xlink:href="#SVGID_00000003800644862816288050000007227272387567180680_"
   style="overflow:visible"
   id="use34" />&#10;		</clipPath>&#10;		&#10;			<linearGradient
   id="SVGID_00000027592292699244252050000009622151749730415755_"
   gradientUnits="userSpaceOnUse"
   x1="2685.5137"
   y1="2314.04"
   x2="1955.9087"
   y2="2718.5601">&#10;			<stop
   offset="0"
   style="stop-color:#0286CF"
   id="stop35" />&#10;			<stop
   offset="1"
   style="stop-color:#51F4E9"
   id="stop36" />&#10;		</linearGradient>&#10;		&#10;			<rect
   x="2017.074"
   y="2348.8069"
   style="fill:url(#SVGID_00000027592292699244252050000009622151749730415755_)"
   width="549.62"
   height="366.952"
   clip-path="url(#SVGID_00000167398304111187929400000005407654747722063540_)"
   id="rect36" />&#10;	</g>&#10;	<g
   id="g38">&#10;		<defs
   id="defs36" />&#10;		<clipPath
   id="SVGID_00000073689049180305348930000015362383555111046588_">&#10;			<use
   xlink:href="#SVGID_00000028308578925112503650000014086225703360668821_"
   style="overflow:visible"
   id="use36" />&#10;		</clipPath>&#10;		&#10;			<linearGradient
   id="SVGID_00000016778356651923628310000010936321015573425070_"
   gradientUnits="userSpaceOnUse"
   x1="2583.9646"
   y1="2493.6353"
   x2="2026.1594"
   y2="1414.6038">&#10;			<stop
   offset="0"
   style="stop-color:#0012AF"
   id="stop37" />&#10;			<stop
   offset="1"
   style="stop-color:#DA34C4"
   id="stop38" />&#10;		</linearGradient>&#10;		&#10;			<rect
   x="1788.627"
   y="1286.1219"
   style="fill:url(#SVGID_00000016778356651923628310000010936321015573425070_)"
   width="958.34698"
   height="1191.8361"
   clip-path="url(#SVGID_00000073689049180305348930000015362383555111046588_)"
   id="rect38" />&#10;	</g>&#10;	<defs
   id="defs38" />&#10;	&#10;		<mask
   maskUnits="userSpaceOnUse"
   x="2363.502"
   y="1954.231"
   width="425.798"
   height="203.727"
   id="SVGID_00000077310158739227576170000005606383869820338615_">&#10;		<g
   style="filter:url(#Adobe_OpacityMaskFilter_00000150824743313838959440000010499574274507981456_)"
   id="g40">&#10;			&#10;				<linearGradient
   id="SVGID_00000023973108744375544430000010297206643325450394_"
   gradientUnits="userSpaceOnUse"
   x1="115.0234"
   y1="2487.0901"
   x2="153.4726"
   y2="2806.2834"
   gradientTransform="translate(2438.7214,-619.0807)">&#10;				<stop
   offset="0"
   style="stop-color:#FFFFFF"
   id="stop39" />&#10;				<stop
   offset="1"
   style="stop-color:#000000"
   id="stop40" />&#10;			</linearGradient>&#10;			&#10;				<rect
   x="2363.502"
   y="1954.23"
   style="fill:url(#SVGID_00000023973108744375544430000010297206643325450394_)"
   width="425.798"
   height="203.728"
   id="rect40" />&#10;		</g>&#10;	</mask>&#10;	&#10;		<path
   style="clip-rule:evenodd;fill:#fce2a6;fill-rule:evenodd"
   d="m 2363.502,2157.958 c 244.944,-205.241 425.798,-145.683 425.798,-145.683 -16.948,-34.415 -49.385,-48.907 -76.926,-54.863 -98.015,-21.195 -221.979,65.531 -348.872,200.546"
   mask="url(#SVGID_00000077310158739227576170000005606383869820338615_)"
   id="path40" />&#10;</g></g></g></svg>
