<?xml version="1.0" encoding="UTF-8" standalone="no"?>
<!-- Created with Inkscape (http://www.inkscape.org/) -->

<svg
   width="8.5368577mm"
   height="8.5368658mm"
   viewBox="0 0 4.4368577 4.4368658"
   version="1.1"
   id="svg1"
   xml:space="preserve"
   xmlns:inkscape="http://www.inkscape.org/namespaces/inkscape"
   xmlns:sodipodi="http://sodipodi.sourceforge.net/DTD/sodipodi-0.dtd"
   xmlns="http://www.w3.org/2000/svg"
   xmlns:svg="http://www.w3.org/2000/svg"><sodipodi:namedview
     id="namedview1"
     pagecolor="#ffffff"
     bordercolor="#000000"
     borderopacity="0.25"
     inkscape:showpageshadow="2"
     inkscape:pageopacity="0.0"
     inkscape:pagecheckerboard="0"
     inkscape:deskcolor="#d1d1d1"
     inkscape:document-units="mm" /><defs
     id="defs1" /><g
     inkscape:label="Layer 1"
     inkscape:groupmode="layer"
     id="layer1"
     transform="translate(-100.69696,-92.685384)"><path
       d="m 101.12436,97.122247 q -0.1763,0 -0.30185,-0.12555 -0.12555,-0.12555 -0.12555,-0.30185 v -3.37853 q 0,-0.17631 0.12555,-0.30185 0.12555,-0.12555 0.30185,-0.12555 h 2.21843 v 0.26458 h -2.21843 q -0.0712,0 -0.11702,0.0458 -0.0458,0.0458 -0.0458,0.11703 v 3.37853 q 0,0.0712 0.0458,0.11702 0.0458,0.0458 0.11702,0.0458 h 3.37853 q 0.0712,0 0.11702,-0.0458 0.0458,-0.0458 0.0458,-0.11702 v -2.21843 h 0.26459 v 2.21843 q 0,0.1763 -0.12555,0.30185 -0.12555,0.12555 -0.30186,0.12555 z m 3.21571,-3.11394 v -0.52917 h -0.52917 v -0.26458 h 0.52917 v -0.52917 h 0.26458 v 0.52917 h 0.52917 v 0.26458 h -0.52917 v 0.52917 z m -2.71707,2.1879 h 2.42196 l -0.74796,-0.99728 -0.69199,0.87516 -0.46302,-0.55969 z m -0.66146,-3.04271 v 3.70417 z"
       id="path1-55"
       style="fill:#6ee1f7;fill-opacity:1;stroke-width:0.00661458" /></g></svg>
