<?xml version="1.0" encoding="UTF-8" standalone="no"?>
<!-- Created with Inkscape (http://www.inkscape.org/) -->

<svg
   width="7.0270753mm"
   height="7.0270672mm"
   viewBox="0 0 5.0270753 5.0270672"
   version="1.1"
   id="svg1"
   xml:space="preserve"
   xmlns="http://www.w3.org/2000/svg"
   xmlns:svg="http://www.w3.org/2000/svg"><defs
     id="defs1" /><g
     id="layer1"
     transform="translate(-74.333879,-130.24528)"><path
       d="m 75.478709,134.12752 1.82663,-0.91077 0.91078,-1.82663 -1.82664,0.91077 z m 1.3687,-1.10412 q -0.11245,0 -0.18851,-0.0761 -0.0761,-0.0761 -0.0761,-0.18851 0,-0.11245 0.0761,-0.18852 0.0761,-0.0761 0.18851,-0.0761 0.11245,0 0.18852,0.0761 0.0761,0.0761 0.0761,0.18852 0,0.11245 -0.0761,0.18851 -0.0761,0.0761 -0.18852,0.0761 z m 4.5e-4,2.24895 q -0.52147,0 -0.98031,-0.1979 -0.45885,-0.19791 -0.79826,-0.53717 -0.33942,-0.33927 -0.53742,-0.79792 -0.19799,-0.45863 -0.19799,-0.9801 0,-0.52147 0.19791,-0.98031 0.1979,-0.45884 0.53717,-0.79826 0.33926,-0.33942 0.79791,-0.53741 0.45863,-0.198 0.9801,-0.198 0.52147,0 0.98031,0.19791 0.45884,0.19791 0.79826,0.53717 0.33942,0.33927 0.53741,0.79791 0.198,0.45864 0.198,0.98011 0,0.52146 -0.19791,0.9803 -0.19791,0.45885 -0.53717,0.79826 -0.33927,0.33943 -0.79791,0.53742 -0.45864,0.19799 -0.9801,0.19799 z"
       id="path1"
       style="fill:#08c4ec;fill-opacity:1;stroke-width:0.00661458" /></g></svg>
