<?xml version="1.0" encoding="UTF-8" standalone="no"?>
<!-- Created with Inkscape (http://www.inkscape.org/) -->

<svg
   width="7.0853682mm"
   height="6.7734096mm"
   viewBox="0 0 6.0853682 2.7734096"
   version="1.1"
   id="svg1"
   xml:space="preserve"
   xmlns="http://www.w3.org/2000/svg"
   xmlns:svg="http://www.w3.org/2000/svg"><defs
     id="defs1" /><g
     id="layer1"
     transform="translate(-74.073396,-150.31549)"><path
       d="m 74.073413,153.08848 v -0.32258 q 0,-0.26407 0.27577,-0.43376 0.27578,-0.16969 0.71895,-0.16969 0.0733,0 0.14756,0.005 0.0743,0.005 0.14959,0.0178 -0.0773,0.12364 -0.11474,0.25669 -0.0374,0.13305 -0.0374,0.27298 v 0.37397 h -1.13975 z m 1.58749,0 v -0.36379 q 0,-0.18581 0.10431,-0.33968 0.10431,-0.15387 0.30071,-0.26836 0.1964,-0.11448 0.46403,-0.17172 0.26763,-0.0572 0.58513,-0.0572 0.32361,0 0.59124,0.0572 0.26763,0.0572 0.46404,0.17172 0.1964,0.11449 0.29867,0.26836 0.10227,0.15387 0.10227,0.33968 v 0.36379 z m 3.35816,0 v -0.37321 q 0,-0.14929 -0.0354,-0.28135 -0.0354,-0.13206 -0.10609,-0.24908 0.0778,-0.0132 0.14883,-0.0178 0.071,-0.005 0.14018,-0.005 0.44317,0 0.71768,0.16765 0.2745,0.16765 0.2745,0.4358 v 0.32258 z m -2.94094,-0.39687 h 2.08004 v -0.028 q -0.0407,-0.16028 -0.33786,-0.26967 -0.29714,-0.1094 -0.7042,-0.1094 -0.40705,0 -0.7042,0.1094 -0.29715,0.10939 -0.33378,0.26967 z m -1.01067,-0.78611 q -0.18707,0 -0.31961,-0.13302 -0.13255,-0.13302 -0.13255,-0.31982 0,-0.18927 0.13302,-0.31979 0.13302,-0.13051 0.31982,-0.13051 0.18927,0 0.32106,0.13051 0.13178,0.13052 0.13178,0.32055 0,0.18444 -0.13039,0.31826 -0.13038,0.13382 -0.32313,0.13382 z m 4.09917,0 q -0.1852,0 -0.31902,-0.13382 -0.13382,-0.13382 -0.13382,-0.31826 0,-0.19003 0.13382,-0.32055 0.13382,-0.13051 0.31951,-0.13051 0.19133,0 0.32184,0.13051 0.13051,0.13052 0.13051,0.31979 0,0.1868 -0.13019,0.31982 -0.1302,0.13302 -0.32265,0.13302 z m -2.04962,-0.21625 q -0.28583,0 -0.48681,-0.20034 -0.20098,-0.20034 -0.20098,-0.48655 0,-0.29193 0.20034,-0.48941 0.20035,-0.19747 0.48655,-0.19747 0.29193,0 0.48942,0.19722 0.19747,0.19722 0.19747,0.48877 0,0.28583 -0.19722,0.4868 -0.19722,0.20098 -0.48877,0.20098 z m 3.7e-4,-0.39686 q 0.12136,0 0.20506,-0.085 0.0837,-0.085 0.0837,-0.20633 0,-0.12135 -0.0834,-0.20505 -0.0834,-0.0837 -0.20665,-0.0837 -0.12008,0 -0.20505,0.0834 -0.085,0.0834 -0.085,0.20664 0,0.12008 0.085,0.20506 0.085,0.085 0.20632,0.085 z m 0.003,1.39922 z m -0.004,-1.68925 z"
       id="path1-88"
       style="fill:#08c4ec;fill-opacity:1;stroke-width:0.00661458" /></g></svg>
