<?xml version="1.0" encoding="UTF-8" standalone="no"?>
<!-- Created with Inkscape (http://www.inkscape.org/) -->

<svg
   width="6.0270672mm"
   height="6.0270672mm"
   viewBox="0 0 5.0270672 5.0270672"
   version="1.1"
   id="svg1"
   xml:space="preserve"
   xmlns="http://www.w3.org/2000/svg"
   xmlns:svg="http://www.w3.org/2000/svg"><defs
     id="defs1" /><g
     id="layer1"
     transform="translate(-98.382273,-157.83151)"><path
       d="m 100.69737,161.60182 h 0.39686 v -1.05833 h 1.05834 v -0.39686 h -1.05834 v -1.05834 h -0.39686 v 1.05834 h -1.058331 v 0.39686 h 1.058331 z m 0.19888,1.25677 q -0.52147,0 -0.980311,-0.1979 -0.45885,-0.19791 -0.79826,-0.53717 -0.33942,-0.33927 -0.53742,-0.79792 -0.19799,-0.45863 -0.19799,-0.9801 0,-0.52147 0.19791,-0.98031 0.1979,-0.45884 0.53717,-0.79826 0.33926,-0.33942 0.79791,-0.53741 0.458631,-0.198 0.980101,-0.198 0.52147,0 0.98031,0.19791 0.45884,0.19791 0.79826,0.53717 0.33942,0.33927 0.53741,0.79791 0.198,0.45864 0.198,0.98011 0,0.52146 -0.19791,0.9803 -0.19791,0.45885 -0.53717,0.79826 -0.33927,0.33943 -0.79791,0.53742 -0.45864,0.19799 -0.9801,0.19799 z m -4.5e-4,-0.39686 q 0.88636,0 1.50151,-0.61516 0.61516,-0.61516 0.61516,-1.50151 0,-0.88636 -0.61516,-1.50151 -0.61515,-0.61516 -1.50151,-0.61516 -0.88635,0 -1.501511,0.61516 -0.61515,0.61515 -0.61515,1.50151 0,0.88635 0.61515,1.50151 0.615161,0.61516 1.501511,0.61516 z m 0,-2.11667 z"
       id="path1-29"
       style="fill:#08c4ec;fill-opacity:1;stroke-width:0.00661458" /></g></svg>
