<?xml version="1.0" encoding="UTF-8" standalone="no"?>
<!-- Created with Inkscape (http://www.inkscape.org/) -->

<svg
   width="5.556242mm"
   height="5.0270834mm"
   viewBox="0 0 5.556242 5.0270834"
   version="1.1"
   id="svg1"
   xml:space="preserve"
   xmlns:inkscape="http://www.inkscape.org/namespaces/inkscape"
   xmlns:sodipodi="http://sodipodi.sourceforge.net/DTD/sodipodi-0.dtd"
   xmlns="http://www.w3.org/2000/svg"
   xmlns:svg="http://www.w3.org/2000/svg"><sodipodi:namedview
     id="namedview1"
     pagecolor="#ffffff"
     bordercolor="#000000"
     borderopacity="0.25"
     inkscape:showpageshadow="2"
     inkscape:pageopacity="0.0"
     inkscape:pagecheckerboard="0"
     inkscape:deskcolor="#d1d1d1"
     inkscape:document-units="mm" /><defs
     id="defs1" /><g
     inkscape:label="Layer 1"
     inkscape:groupmode="layer"
     id="layer1"
     transform="translate(-116.37942,-160.93295)"><path
       d="m 118.89296,163.97565 z m -2.03525,1.98437 q -0.20048,0 -0.33938,-0.13891 -0.13891,-0.13891 -0.13891,-0.33938 v -3.01216 q 0,-0.20048 0.13891,-0.33939 0.1389,-0.1389 0.33938,-0.1389 h 0.80799 l 0.48948,-0.52917 h 1.48064 v 0.39687 h -1.30765 l -0.4854,0.52917 h -0.98506 q -0.0356,0 -0.0585,0.0229 -0.0229,0.0229 -0.0229,0.0585 v 3.01216 q 0,0.0356 0.0229,0.0585 0.0229,0.0229 0.0585,0.0229 h 4.07049 q 0.0356,0 0.0585,-0.0229 0.0229,-0.0229 0.0229,-0.0585 v -2.24893 h 0.39689 v 2.24895 q 0,0.20047 -0.1389,0.33938 -0.13891,0.13891 -0.33939,0.13891 z m 4.15191,-3.57187 v -0.52917 h -0.52916 v -0.39687 h 0.52916 v -0.52917 h 0.39687 v 0.52917 h 0.52917 v 0.39687 h -0.52917 v 0.52917 z m -2.11666,2.67635 q 0.45538,0 0.77212,-0.31673 0.31673,-0.31674 0.31673,-0.77212 0,-0.45539 -0.31673,-0.77212 -0.31674,-0.31674 -0.77212,-0.31674 -0.45539,0 -0.77212,0.31674 -0.31674,0.31673 -0.31674,0.77212 0,0.45538 0.31674,0.77212 0.31673,0.31673 0.77212,0.31673 z m 0,-0.39686 q -0.29308,0 -0.49254,-0.19946 -0.19946,-0.19945 -0.19946,-0.49253 0,-0.29308 0.19946,-0.49254 0.19946,-0.19945 0.49254,-0.19945 0.29308,0 0.49253,0.19945 0.19946,0.19946 0.19946,0.49254 0,0.29308 -0.19946,0.49253 -0.19945,0.19946 -0.49253,0.19946 z"
       id="path1"
       style="fill:#0e111f;fill-opacity:1;stroke-width:0.00661458" /></g></svg>
