<?xml version="1.0" encoding="UTF-8" standalone="no"?>
<!-- Created with Inkscape (http://www.inkscape.org/) -->

<svg
   width="7.0270672mm"
   height="7.0270672mm"
   viewBox="0 0 5.0270672 5.0270672"
   version="1.1"
   id="svg1"
   xml:space="preserve"
   inkscape:export-filename="ihome-active.svg"
   inkscape:export-xdpi="416.00085"
   inkscape:export-ydpi="416.00085"
   xmlns:inkscape="http://www.inkscape.org/namespaces/inkscape"
   xmlns:sodipodi="http://sodipodi.sourceforge.net/DTD/sodipodi-0.dtd"
   xmlns="http://www.w3.org/2000/svg"
   xmlns:svg="http://www.w3.org/2000/svg"><sodipodi:namedview
     id="namedview1"
     pagecolor="#ffffff"
     bordercolor="#000000"
     borderopacity="0.25"
     inkscape:showpageshadow="2"
     inkscape:pageopacity="0.0"
     inkscape:pagecheckerboard="0"
     inkscape:deskcolor="#d1d1d1"
     inkscape:document-units="mm" /><defs
     id="defs1" /><g
     inkscape:label="Layer 1"
     inkscape:groupmode="layer"
     id="layer1"
     transform="translate(-111.86193,-139.69447)"><path
       d="m 114.17702,143.46477 h 0.39686 v -1.05833 h 1.05834 v -0.39686 h -1.05834 v -1.05834 h -0.39686 v 1.05834 h -1.05833 v 0.39686 h 1.05833 z m 0.19888,1.25677 q -0.52147,0 -0.98031,-0.1979 -0.45885,-0.19791 -0.79826,-0.53717 -0.33942,-0.33927 -0.53742,-0.79792 -0.19799,-0.45863 -0.19799,-0.9801 0,-0.52147 0.19791,-0.98031 0.1979,-0.45884 0.53717,-0.79826 0.33926,-0.33942 0.79791,-0.53741 0.45863,-0.198 0.9801,-0.198 0.52147,0 0.98031,0.19791 0.45884,0.19791 0.79826,0.53717 0.33942,0.33927 0.53741,0.79791 0.198,0.45864 0.198,0.98011 0,0.52146 -0.19791,0.9803 -0.19791,0.45885 -0.53717,0.79826 -0.33927,0.33943 -0.79791,0.53742 -0.45864,0.19799 -0.9801,0.19799 z"
       id="path1-48"
       style="fill:#08c4ec;fill-opacity:1;stroke-width:0.00661458" /></g></svg>
