<?xml version="1.0" encoding="UTF-8" standalone="no"?>
<!-- Created with Inkscape (http://www.inkscape.org/) -->

<svg
   width="5.2916665mm"
   height="4.8550978mm"
   viewBox="0 0 5.2916665 4.8550978"
   version="1.1"
   id="svg1"
   xml:space="preserve"
   xmlns:inkscape="http://www.inkscape.org/namespaces/inkscape"
   xmlns:sodipodi="http://sodipodi.sourceforge.net/DTD/sodipodi-0.dtd"
   xmlns="http://www.w3.org/2000/svg"
   xmlns:svg="http://www.w3.org/2000/svg"><sodipodi:namedview
     id="namedview1"
     pagecolor="#ffffff"
     bordercolor="#000000"
     borderopacity="0.25"
     inkscape:showpageshadow="2"
     inkscape:pageopacity="0.0"
     inkscape:pagecheckerboard="0"
     inkscape:deskcolor="#d1d1d1"
     inkscape:document-units="mm" /><defs
     id="defs1" /><path
     d="M 2.6458347,4.85511 2.2621847,4.51115 Q 1.5941147,3.90923 1.1575547,3.47266 0.72099469,3.0361 0.46302469,2.68884 0.20505469,2.34157 0.10252469,2.05053 4.6949386e-6,1.75949 4.6949386e-6,1.45522 4.6949386e-6,0.83344997 0.41671469,0.41672997 0.83343469,9.9673107e-6 1.4552047,9.9673107e-6 q 0.34396,0 0.65485,0.1455200026893 0.31088,0.14552 0.53578,0.4101 0.2249,-0.26458 0.53578,-0.4101 0.31089,-0.1455200026893 0.65484,-0.1455200026893 0.62178,0 1.03849,0.4167200026893 0.41672,0.41672 0.41672,1.03849003 0,0.30427 -0.10252,0.59531 -0.10253,0.29104 -0.3605,0.63831 -0.25797,0.34726 -0.69453,0.78382 -0.43656,0.43657 -1.10463,1.03849 z"
     id="path1-0"
     style="fill:#fd0000;fill-opacity:1;stroke-width:0.00661458"
     inkscape:label="path1-0"
     inkscape:export-filename="likesFilled.svg"
     inkscape:export-xdpi="96"
     inkscape:export-ydpi="96" /></svg>
