<?xml version="1.0" encoding="UTF-8" standalone="no"?>
<!-- Created with Inkscape (http://www.inkscape.org/) -->

<svg
   width="5.2916665mm"
   height="4.8550978mm"
   viewBox="0 0 5.2916665 4.8550978"
   version="1.1"
   id="svg1"
   xml:space="preserve"
   xmlns:inkscape="http://www.inkscape.org/namespaces/inkscape"
   xmlns:sodipodi="http://sodipodi.sourceforge.net/DTD/sodipodi-0.dtd"
   xmlns="http://www.w3.org/2000/svg"
   xmlns:svg="http://www.w3.org/2000/svg"><sodipodi:namedview
     id="namedview1"
     pagecolor="#ffffff"
     bordercolor="#000000"
     borderopacity="0.25"
     inkscape:showpageshadow="2"
     inkscape:pageopacity="0.0"
     inkscape:pagecheckerboard="0"
     inkscape:deskcolor="#d1d1d1"
     inkscape:document-units="mm" /><defs
     id="defs1" /><path
     d="m 2.6458373,4.8551111 -0.38365,-0.34396 q -0.66807,-0.60192 -1.10463,-1.03849 -0.43656003,-0.43656 -0.69453003,-0.78382 -0.25797,-0.34727 -0.3605,-0.63831 Q 7.2707093e-6,1.7594911 7.2707093e-6,1.4552211 q 0,-0.62177003 0.4167099992907,-1.03849003 0.41672,-0.416720004414 1.03849003,-0.416720004414 0.34396,0 0.65485,0.145520004414 0.31088,0.14552 0.53578,0.4101 0.2249,-0.26458 0.53578,-0.4101 0.31089,-0.145520004414 0.65484,-0.145520004414 0.62178,0 1.03849,0.416720004414 0.41672,0.41672 0.41672,1.03849003 0,0.30427 -0.10252,0.59531 -0.10253,0.29104 -0.3605,0.63831 -0.25797,0.34726 -0.69453,0.78382 -0.43656,0.43657 -1.10463,1.03849 z m 0,-0.71437 q 0.635,-0.56886 1.0451,-0.97565 0.41011,-0.4068 0.64823,-0.70776 0.23813,-0.30097 0.33073,-0.53579 0.0926,-0.23481 0.0926,-0.46632 0,-0.39688 -0.26459,-0.66146003 -0.26458,-0.26459 -0.66146,-0.26459 -0.31088,0 -0.57546,0.17529 -0.26459,0.17529 -0.36381,0.44649003 h -0.5027 q -0.0992,-0.27120003 -0.36381,-0.44649003 -0.26458,-0.17529 -0.57547,-0.17529 -0.39687,0 -0.66145003,0.26459 -0.26459,0.26458003 -0.26459,0.66146003 0,0.23151 0.0926,0.46632 0.0926,0.23482 0.33073,0.53579 0.23812003,0.30096 0.64823003,0.70776 0.4101,0.40679 1.0451,0.97565 z m 0,-1.80578 z"
     id="path1-5"
     style="fill:#ffffff;fill-opacity:1;stroke-width:0.00661458" /></svg>
